<svg xmlns="http://www.w3.org/2000/svg" width="24" height="24" fill="none" viewBox="0 0 24 24" id="album"><path fill="#111" fill-rule="evenodd" d="M8.61594 6.25001H15.384C17.0236 6.25 18.33 6.24998 19.3416 6.38454C20.3809 6.52278 21.2431 6.81768 21.888 7.51432C22.9065 8.61446 22.842 10.1385 22.6036 12.0909C22.5534 12.5021 22.1795 12.7947 21.7683 12.7445C21.3571 12.6943 21.0645 12.3203 21.1147 11.9091C21.3671 9.84108 21.2665 9.05094 20.7873 8.53336C20.4844 8.20618 20.0289 7.98917 19.1439 7.87145C18.2427 7.75159 17.0364 7.75001 15.3276 7.75001H8.67239C6.96357 7.75001 5.75726 7.75159 4.85612 7.87145C3.97106 7.98917 3.51557 8.20618 3.21267 8.53336C2.91681 8.85293 2.75644 9.28782 2.75018 10.1117C2.74373 10.9618 2.89981 12.0828 3.12616 13.6883L3.54913 16.6883C3.7269 17.9491 3.8514 18.821 4.03437 19.4747C4.21058 20.1042 4.41795 20.4405 4.70664 20.6795C5.00014 20.9225 5.39417 21.0784 6.09519 21.1625C6.81393 21.2488 7.75347 21.25 9.09536 21.25H14.9046C16.2465 21.25 17.1861 21.2488 17.9048 21.1625C18.6058 21.0784 18.9999 20.9225 19.2934 20.6795C19.582 20.4405 19.7894 20.1042 19.9656 19.4747C20.1486 18.821 20.2731 17.9491 20.4509 16.6883C20.5087 16.2781 20.8881 15.9925 21.2982 16.0503C21.7084 16.1082 21.994 16.4875 21.9362 16.8977L21.9288 16.9499C21.7602 18.146 21.6232 19.1176 21.4101 19.879C21.1871 20.6756 20.8585 21.331 20.25 21.8349C19.6463 22.3347 18.9301 22.5502 18.0835 22.6518C17.265 22.75 16.2352 22.75 14.9531 22.75H9.04687C7.76476 22.75 6.73502 22.75 5.91647 22.6518C5.06992 22.5502 4.35372 22.3347 3.75003 21.8349C3.14152 21.331 2.81286 20.6756 2.58989 19.879C2.37676 19.1176 2.23979 18.146 2.07118 16.9499L1.63219 13.8363C1.41651 12.3067 1.24283 11.075 1.25023 10.1003C1.25792 9.08649 1.45997 8.21857 2.11196 7.51432C2.75691 6.81768 3.61905 6.52278 4.65835 6.38454C5.67 6.24998 6.97643 6.25 8.61594 6.25001Z" clip-rule="evenodd"></path><path fill="#111" fill-rule="evenodd" d="M3.6991 7.12946C3.39004 5.3657 4.74724 3.75001 6.53787 3.75001H17.4617C19.2523 3.75001 20.6095 5.3657 20.3005 7.12946L18.823 6.87057C18.9712 6.02479 18.3204 5.25001 17.4617 5.25001H6.53787C5.67921 5.25001 5.02839 6.02479 5.17659 6.87057L3.6991 7.12946Z" clip-rule="evenodd"></path><path fill="#111" fill-rule="evenodd" d="M8.69935 1.25001C8.71303 1.25001 8.72691 1.25001 8.74099 1.25001H15.2588C15.2729 1.25001 15.2867 1.25001 15.3004 1.25001 15.5203 1.24995 15.6888 1.2499 15.8362 1.26571 17.2356 1.4159 18.2958 2.59851 18.2927 4.00599 18.2924 4.15419 18.274 4.32178 18.25 4.54034 18.2485 4.55391 18.247 4.56769 18.2455 4.58167L16.7544 4.41836C16.785 4.1392 16.7926 4.05933 16.7927 4.00273 16.7941 3.36297 16.3122 2.82542 15.6761 2.75715 15.6198 2.75111 15.5396 2.75001 15.2588 2.75001H8.74099C8.46013 2.75001 8.37993 2.75111 8.32365 2.75715 7.68753 2.82542 7.20564 3.36297 7.20703 4.00273 7.20715 4.05933 7.21479 4.13918 7.24537 4.41837L5.75428 4.58166C5.75275 4.56766 5.75124 4.55387 5.74974 4.54028 5.72575 4.32174 5.70736 4.15418 5.70703 4.00599 5.70398 2.59851 6.76414 1.4159 8.16359 1.26571 8.31094 1.2499 8.4795 1.24995 8.69935 1.25001zM16.5 10.75C16.0858 10.75 15.75 11.0858 15.75 11.5 15.75 11.9142 16.0858 12.25 16.5 12.25 16.9142 12.25 17.25 11.9142 17.25 11.5 17.25 11.0858 16.9142 10.75 16.5 10.75zM14.25 11.5C14.25 10.2574 15.2574 9.25001 16.5 9.25001 17.7426 9.25001 18.75 10.2574 18.75 11.5 18.75 12.7427 17.7426 13.75 16.5 13.75 15.2574 13.75 14.25 12.7427 14.25 11.5zM6.89916 15.0767C6.40116 14.6645 5.55023 14.6355 5.00702 15.0289L3.68308 15.9877C3.34761 16.2307 2.8787 16.1557 2.63573 15.8202 2.39277 15.4848 2.46776 15.0158 2.80324 14.7729L4.12717 13.814C5.21465 13.0264 6.82142 13.0652 7.85559 13.9212L11.6938 17.0981C12.0565 17.3983 12.6816 17.4544 13.1327 17.192L13.3995 17.0368C14.6757 16.2944 16.3861 16.3727 17.5637 17.25L20.4479 19.3986C20.7801 19.646 20.8488 20.1159 20.6013 20.4481 20.3539 20.7802 19.884 20.8489 19.5518 20.6015L16.6676 18.4529C15.985 17.9444 14.9251 17.8847 14.1538 18.3334L13.8869 18.4886C12.9151 19.0539 11.6044 18.9712 10.7373 18.2536L6.89916 15.0767z" clip-rule="evenodd"></path></svg>